PathFileType	4	(X/Y/Z)	C:\Users\°ÂÌØÂü\Desktop\20201223\Trimmed_Trimmed_bx_y_10_501.trc
DataRate	CameraRate	NumFrames	NumMarkers	Units	OrigDataRate	OrigDataStartFrame	OrigNumFrames
50.00	50.00	      4	43	mm	50.00	539	      1437
Frame#	Time	Top.Head			R.Acromium			L.Acromium			Sternum			R.ASIS			L.ASIS			V.Sacral			R.Thigh.Upper			R.Thigh.Front			R.Thigh.Rear			R.Knee.Lat			R.Knee.Med			R.Shank.Upper			R.Shank.Front			R.Shank.Rear			R.Ankle.Lat			R.Midfoot.Lat			R.Toe.Lat			R.Toe.Tip			R.Toe.Med			R.Ankle.Med			R.Midfoot.Sup			R.Heel			L.Thigh.Upper			L.Thigh.Front			L.Thigh.Rear			L.Knee.Lat			L.Knee.Med			L.Shank.Upper			L.Shank.Front			L.Shank.Rear			L.Ankle.Lat			L.Midfoot.Lat			L.Toe.Lat			L.Toe.Tip			L.Toe.Med			L.Ankle.Med			L.Midfoot.Sup			L.Heel			origin1 front left			origin2 front right			origin 3 back right			origin 4 back leftt			
		X1	Y1	Z1	X2	Y2	Z2	X3	Y3	Z3	X4	Y4	Z4	X5	Y5	Z5	X6	Y6	Z6	X7	Y7	Z7	X8	Y8	Z8	X9	Y9	Z9	X10	Y10	Z10	X11	Y11	Z11	X12	Y12	Z12	X13	Y13	Z13	X14	Y14	Z14	X15	Y15	Z15	X16	Y16	Z16	X17	Y17	Z17	X18	Y18	Z18	X19	Y19	Z19	X20	Y20	Z20	X21	Y21	Z21	X22	Y22	Z22	X23	Y23	Z23	X24	Y24	Z24	X25	Y25	Z25	X26	Y26	Z26	X27	Y27	Z27	X28	Y28	Z28	X29	Y29	Z29	X30	Y30	Z30	X31	Y31	Z31	X32	Y32	Z32	X33	Y33	Z33	X34	Y34	Z34	X35	Y35	Z35	X36	Y36	Z36	X37	Y37	Z37	X38	Y38	Z38	X39	Y39	Z39	X40	Y40	Z40	X41	Y41	Z41	X42	Y42	Z42	X43	Y43	Z43	

539	10.760	-668.22955	246.56694	1838.97791	-632.45251	56.04723	1527.06750	-617.60291	448.77200	1526.08154	-525.97272	258.96158	1399.30103	-540.78186	140.93379	1053.26257	-542.45044	384.92252	1061.60095	-740.57562	237.78215	1051.95911	-575.53992	90.22462	892.27808	-529.22028	150.45929	844.12408	-624.55225	86.24944	749.09448	-647.14343	120.58681	607.14508	-637.43079	230.21986	564.73602	-686.24500	119.47431	541.31683	-603.85052	171.87929	546.41150	-725.94348	123.61505	474.72806	-687.80670	145.62489	214.40686	-618.00470	77.30124	167.13351	-573.12793	49.50288	161.60362	-492.92792	91.95509	161.40115	-532.30212	143.71478	165.35635	-632.98694	217.76733	221.55646	-592.40985	188.64850	170.89214	-717.29791	214.23254	169.55487	-577.39380	431.29071	885.22424	-530.24341	372.05997	838.96063	-623.26233	435.44733	754.81555	-656.76959	409.89487	628.39850	-622.97314	307.10205	577.89673	-665.35394	407.60431	563.80188	-612.32220	366.54318	541.00677	-717.19421	412.38889	511.48599	-680.16309	413.11938	213.25577	-585.61060	468.25415	165.02808	-546.47797	479.60870	158.87096	-487.51007	428.94153	167.68639	-524.61877	387.82800	177.24141	-642.93878	326.22229	206.59996	-593.48724	349.37723	166.90840	-731.99152	342.05621	164.63182	-443.49768	449.17447	147.01108	-450.33389	75.39252	144.79054	-805.82471	82.37354	142.54037	-799.06696	457.85785	144.82718	
540	10.780	-666.13538	246.53279	1839.15698	-631.41809	55.95591	1527.08435	-616.64325	448.48962	1525.93372	-525.31207	258.78488	1399.04822	-541.06726	140.79675	1053.23267	-542.66742	384.50424	1061.60547	-740.85754	237.56653	1052.08655	-575.81873	90.11572	892.28003	-529.44568	150.18860	844.09888	-624.94208	86.06480	749.17963	-647.40497	120.42397	607.21423	-637.54926	230.17795	564.54047	-686.36249	119.47527	541.22321	-603.92133	171.78369	546.42896	-726.08362	123.64376	474.62936	-687.78949	145.59439	214.36501	-618.01099	77.31629	167.12083	-573.11340	49.50417	161.60344	-492.94656	91.95177	161.38089	-532.33606	143.72783	165.33784	-632.94568	217.70058	221.53142	-592.41132	188.65816	170.90317	-717.28284	214.23022	169.60658	-577.69604	431.13086	885.13947	-530.44653	371.99457	838.90863	-623.53058	435.43860	754.87976	-657.03186	409.87585	628.28784	-623.07397	307.15405	577.78345	-665.55066	407.60178	563.77423	-612.44458	366.48346	540.95422	-717.26080	412.39017	511.33252	-680.15051	413.12323	213.26732	-585.62665	468.19052	165.16887	-546.48358	479.61890	158.87392	-487.52142	428.94598	167.71381	-524.57715	387.83688	177.22926	-642.98474	326.22696	206.57809	-593.48688	349.40302	166.88559	-732.00824	342.04236	164.67250	-443.51050	449.14877	147.03046	-450.33231	75.39529	144.80272	-805.81641	82.39288	142.55881	-799.12695	457.69885	144.97105	
541	10.800	-663.76459	246.51842	1839.38464	-630.20117	55.81810	1527.14404	-615.58118	448.09137	1525.70056	-524.59760	258.58447	1398.78552	-541.48798	140.67387	1053.17712	-542.94867	384.04376	1061.57043	-741.21057	237.34808	1052.21130	-576.10828	90.03310	892.29572	-529.71356	149.89774	844.12018	-625.35602	85.89938	749.19995	-647.71234	120.27844	607.27545	-637.69342	230.13051	564.36816	-686.51721	119.46860	541.12299	-604.04364	171.67415	546.44690	-726.25470	123.67599	474.51047	-687.88049	145.56567	214.24352	-618.01147	77.33791	167.09676	-573.09650	49.49299	161.60963	-492.95560	91.94867	161.36819	-532.34613	143.74301	165.34474	-632.90588	217.63477	221.51067	-592.40405	188.70049	170.95857	-717.25275	214.24078	169.65123	-578.02466	430.90768	885.04938	-530.70337	371.92538	838.79309	-623.76288	435.33197	754.88110	-657.26563	409.84369	628.15375	-623.15210	307.15582	577.73743	-665.78784	407.57904	563.69415	-612.66925	366.41455	540.87177	-717.45679	412.36023	511.26047	-680.13446	413.11572	213.27669	-585.63025	468.13202	165.29994	-546.48242	479.62457	158.86511	-487.53787	428.96432	167.73686	-524.57629	387.83734	177.20175	-643.04211	326.24069	206.54654	-593.47754	349.37589	166.89568	-732.01953	342.03214	164.71722	-443.51901	449.12259	147.03253	-450.34131	75.41659	144.80115	-805.81555	82.41064	142.57057	-799.15918	457.54791	145.11620	
542	10.820	-661.04736	246.54709	1839.66211	-628.82104	55.63148	1527.22913	-614.39020	447.71307	1525.45667	-523.79071	258.40207	1398.52173	-542.01978	140.60092	1053.09521	-543.29993	383.59378	1061.50110	-741.63141	237.17641	1052.30188	-576.44696	89.95084	892.32703	-530.03906	149.65944	844.16797	-625.80353	85.77345	749.17047	-648.09894	120.17308	607.31989	-637.85504	230.03641	564.32507	-686.73608	119.44833	541.04480	-604.23846	171.52917	546.44281	-726.43927	123.68607	474.40805	-688.01880	145.53728	214.11598	-618.00391	77.35241	167.06969	-573.09399	49.48281	161.61847	-492.95416	91.94347	161.36481	-532.33087	143.74304	165.37082	-632.88885	217.60521	221.49634	-592.38489	188.75757	171.02907	-717.22095	214.26355	169.65909	-578.39240	430.64996	884.97906	-531.01984	371.83386	838.72021	-623.97412	435.16763	754.82513	-657.48450	409.77353	628.00366	-623.27051	306.98996	577.85193	-666.03680	407.53415	563.57703	-612.98767	366.34979	540.79413	-717.75555	412.31085	511.19250	-680.13336	413.10574	213.26491	-585.60986	468.09683	165.37663	-546.47705	479.60358	158.87112	-487.54742	428.97864	167.74579	-524.63080	387.81357	177.17355	-643.05725	326.26321	206.53355	-593.45709	349.32813	166.92476	-732.02325	342.03256	164.74602	-443.52011	449.10712	147.01128	-450.35428	75.44382	144.78738	-805.82037	82.41858	142.57057	-799.16455	457.46185	145.20349	
